<svg xmlns="http://www.w3.org/2000/svg" xml:space="preserve" width="2000" height="248" data-id="lg_S9PpoX2Vg4ONS1U75i" data-version="1" viewBox="0 0 2000 248"><g data-padding="20"><g fill="#1c70ec"><path d="M910.116 204.937v33.35h-17.457V116.272a8.74 8.74 0 1 1 17.457 0v72.151h196.949v49.864h-17.618v-33.35Z"/><path d="M937.026 151.416a15.801 15.801 0 1 0 1.205-31.579 15.801 15.801 0 0 0-1.205 31.579"/><path d="m1107.341 175.313-.069-21.781c-.046-6.923-5.865-11.684-12.604-12.535l-124.315-12.351q-.368-.138-.69-.184a7.82 7.82 0 0 0-7.797 7.751v23.46h-32.522a7.82 7.82 0 0 0 0 15.64ZM1115 66.937 1000.161 9.874l-.046-.161-.115.069-.092-.069-.046.161L885 66.937l9.568 19.274L1000 33.794l105.432 52.417Z"/></g><path fill="transparent" stroke="transparent" d="M875 0h250v248H875z"/></g></svg>